<?xml version="1.0" encoding="utf-8" standalone="no"?>
<!DOCTYPE svg PUBLIC "-//W3C//DTD SVG 1.1//EN"
  "http://www.w3.org/Graphics/SVG/1.1/DTD/svg11.dtd">
<svg xmlns:xlink="http://www.w3.org/1999/xlink" width="720pt" height="403.2pt" viewBox="0 0 720 403.2" xmlns="http://www.w3.org/2000/svg" version="1.1">
 <metadata>
  <rdf:RDF xmlns:dc="http://purl.org/dc/elements/1.1/" xmlns:cc="http://creativecommons.org/ns#" xmlns:rdf="http://www.w3.org/1999/02/22-rdf-syntax-ns#">
   <cc:Work>
    <dc:type rdf:resource="http://purl.org/dc/dcmitype/StillImage"/>
    <dc:date>2026-05-17T07:17:38.886765</dc:date>
    <dc:format>image/svg+xml</dc:format>
    <dc:creator>
     <cc:Agent>
      <dc:title>Matplotlib v3.10.8, https://matplotlib.org/</dc:title>
     </cc:Agent>
    </dc:creator>
   </cc:Work>
  </rdf:RDF>
 </metadata>
 <defs>
  <style type="text/css">*{stroke-linejoin: round; stroke-linecap: butt}</style>
 </defs>
 <g id="figure_1">
  <g id="patch_1">
   <path d="M 0 403.2 
L 720 403.2 
L 720 0 
L 0 0 
z
" style="fill: #ffffff"/>
  </g>
  <g id="axes_1">
   <g id="patch_2">
    <path d="M 57.2975 350.965 
L 698.175 350.965 
L 698.175 15.12 
L 57.2975 15.12 
z
" style="fill: #ffffff"/>
   </g>
   <g id="FillBetweenPolyCollection_1">
    <defs>
     <path id="m442e45856b" d="M 261.65076 -220.1575 
L 261.65076 -67.500682 
L 262.720672 -67.500682 
L 263.790584 -67.500682 
L 264.860497 -67.500682 
L 265.930409 -67.500682 
L 267.000321 -67.500682 
L 268.070234 -67.500682 
L 269.140146 -67.500682 
L 270.210058 -67.500682 
L 271.279971 -67.500682 
L 272.349883 -67.500682 
L 273.419795 -67.500682 
L 274.489708 -67.500682 
L 275.55962 -67.500682 
L 276.629533 -67.500682 
L 277.699445 -67.500682 
L 278.769357 -67.500682 
L 279.83927 -67.500682 
L 280.909182 -67.500682 
L 281.979094 -67.500682 
L 283.049007 -67.500682 
L 284.118919 -67.500682 
L 285.188831 -67.500682 
L 286.258744 -67.500682 
L 287.328656 -67.500682 
L 288.398568 -67.500682 
L 289.468481 -67.500682 
L 290.538393 -67.500682 
L 291.608306 -67.500682 
L 292.678218 -67.500682 
L 293.74813 -67.500682 
L 294.818043 -67.500682 
L 295.887955 -67.500682 
L 296.957867 -67.500682 
L 298.02778 -67.500682 
L 299.097692 -67.500682 
L 300.167604 -67.500682 
L 301.237517 -67.500682 
L 302.307429 -67.500682 
L 303.377341 -67.500682 
L 304.447254 -67.500682 
L 305.517166 -67.500682 
L 306.587078 -67.500682 
L 307.656991 -67.500682 
L 308.726903 -67.500682 
L 309.796816 -67.500682 
L 310.866728 -67.500682 
L 311.93664 -67.500682 
L 313.006553 -67.500682 
L 314.076465 -67.500682 
L 315.146377 -67.500682 
L 316.21629 -67.500682 
L 317.286202 -67.500682 
L 318.356114 -67.500682 
L 319.426027 -67.500682 
L 320.495939 -67.500682 
L 321.565851 -67.500682 
L 322.635764 -67.500682 
L 323.705676 -67.500682 
L 324.775588 -67.500682 
L 325.845501 -67.500682 
L 326.915413 -67.500682 
L 327.985326 -67.500682 
L 329.055238 -67.500682 
L 330.12515 -67.500682 
L 331.195063 -67.500682 
L 332.264975 -67.500682 
L 333.334887 -67.500682 
L 334.4048 -67.500682 
L 335.474712 -67.500682 
L 336.544624 -67.500682 
L 337.614537 -67.500682 
L 338.684449 -67.500682 
L 339.754361 -67.500682 
L 340.824274 -67.500682 
L 341.894186 -67.500682 
L 342.964098 -67.500682 
L 344.034011 -67.500682 
L 345.103923 -67.500682 
L 346.173836 -67.500682 
L 347.243748 -67.500682 
L 348.31366 -67.500682 
L 349.383573 -67.500682 
L 350.453485 -67.500682 
L 351.523397 -67.500682 
L 352.59331 -67.500682 
L 353.663222 -67.500682 
L 354.733134 -67.500682 
L 355.803047 -67.500682 
L 356.872959 -67.500682 
L 357.942871 -67.500682 
L 359.012784 -67.500682 
L 360.082696 -67.500682 
L 361.152609 -67.500682 
L 362.222521 -67.500682 
L 363.292433 -67.500682 
L 364.362346 -67.500682 
L 365.432258 -67.500682 
L 366.50217 -67.500682 
L 367.572083 -67.500682 
L 368.641995 -67.500682 
L 369.711907 -67.500682 
L 370.78182 -67.500682 
L 371.851732 -67.500682 
L 372.921644 -67.500682 
L 373.991557 -67.500682 
L 375.061469 -67.500682 
L 376.131381 -67.500682 
L 377.201294 -67.500682 
L 378.271206 -67.500682 
L 379.341119 -67.500682 
L 380.411031 -67.500682 
L 381.480943 -67.500682 
L 382.550856 -67.500682 
L 383.620768 -67.500682 
L 384.69068 -67.500682 
L 385.760593 -67.500682 
L 386.830505 -67.500682 
L 387.900417 -67.500682 
L 388.97033 -67.500682 
L 390.040242 -67.500682 
L 391.110154 -67.500682 
L 392.180067 -67.500682 
L 393.249979 -67.500682 
L 394.319891 -67.500682 
L 395.389804 -67.500682 
L 396.459716 -67.500682 
L 397.529629 -67.500682 
L 398.599541 -67.500682 
L 399.669453 -67.500682 
L 400.739366 -67.500682 
L 401.809278 -67.500682 
L 402.87919 -67.500682 
L 403.949103 -67.500682 
L 405.019015 -67.500682 
L 406.088927 -67.500682 
L 407.15884 -67.500682 
L 408.228752 -67.500682 
L 409.298664 -67.500682 
L 410.368577 -67.500682 
L 411.438489 -67.500682 
L 412.508402 -67.500682 
L 413.578314 -67.500682 
L 414.648226 -67.500682 
L 415.718139 -67.500682 
L 416.788051 -67.500682 
L 417.857963 -67.500682 
L 418.927876 -67.500682 
L 419.997788 -67.500682 
L 421.0677 -67.500682 
L 422.137613 -67.500682 
L 423.207525 -67.500682 
L 424.277437 -67.500682 
L 425.34735 -67.500682 
L 426.417262 -67.500682 
L 427.487174 -67.500682 
L 428.557087 -67.500682 
L 429.626999 -67.500682 
L 430.696912 -67.500682 
L 431.766824 -67.500682 
L 432.836736 -67.500682 
L 433.906649 -67.500682 
L 434.976561 -67.500682 
L 436.046473 -67.500682 
L 437.116386 -67.500682 
L 438.186298 -67.500682 
L 439.25621 -67.500682 
L 440.326123 -67.500682 
L 441.396035 -67.500682 
L 442.465947 -67.500682 
L 443.53586 -67.500682 
L 444.605772 -67.500682 
L 445.675684 -67.500682 
L 446.745597 -67.500682 
L 447.815509 -67.500682 
L 448.885422 -67.500682 
L 449.955334 -67.500682 
L 451.025246 -67.500682 
L 452.095159 -67.500682 
L 453.165071 -67.500682 
L 454.234983 -67.500682 
L 455.304896 -67.500682 
L 456.374808 -67.500682 
L 457.44472 -67.500682 
L 458.514633 -67.500682 
L 459.584545 -67.500682 
L 460.654457 -67.500682 
L 461.72437 -67.500682 
L 462.794282 -67.500682 
L 463.864194 -67.500682 
L 464.934107 -67.500682 
L 466.004019 -67.500682 
L 467.073932 -67.500682 
L 468.143844 -67.500682 
L 469.213756 -67.500682 
L 470.283669 -67.500682 
L 471.353581 -67.500682 
L 472.423493 -67.500682 
L 473.493406 -67.500682 
L 474.563318 -67.500682 
L 475.63323 -67.500682 
L 476.703143 -67.500682 
L 477.773055 -67.500682 
L 478.842967 -67.500682 
L 479.91288 -67.500682 
L 480.982792 -67.500682 
L 482.052705 -67.500682 
L 483.122617 -67.500682 
L 484.192529 -67.500682 
L 485.262442 -67.500682 
L 486.332354 -67.500682 
L 487.402266 -67.500682 
L 488.472179 -67.500682 
L 489.542091 -67.500682 
L 490.612003 -67.500682 
L 491.681916 -67.500682 
L 492.751828 -67.500682 
L 493.82174 -67.500682 
L 493.82174 -220.1575 
L 493.82174 -220.1575 
L 492.751828 -220.1575 
L 491.681916 -220.1575 
L 490.612003 -220.1575 
L 489.542091 -220.1575 
L 488.472179 -220.1575 
L 487.402266 -220.1575 
L 486.332354 -220.1575 
L 485.262442 -220.1575 
L 484.192529 -220.1575 
L 483.122617 -220.1575 
L 482.052705 -220.1575 
L 480.982792 -220.1575 
L 479.91288 -220.1575 
L 478.842967 -220.1575 
L 477.773055 -220.1575 
L 476.703143 -220.1575 
L 475.63323 -220.1575 
L 474.563318 -220.1575 
L 473.493406 -220.1575 
L 472.423493 -220.1575 
L 471.353581 -220.1575 
L 470.283669 -220.1575 
L 469.213756 -220.1575 
L 468.143844 -220.1575 
L 467.073932 -220.1575 
L 466.004019 -220.1575 
L 464.934107 -220.1575 
L 463.864194 -220.1575 
L 462.794282 -220.1575 
L 461.72437 -220.1575 
L 460.654457 -220.1575 
L 459.584545 -220.1575 
L 458.514633 -220.1575 
L 457.44472 -220.1575 
L 456.374808 -220.1575 
L 455.304896 -220.1575 
L 454.234983 -220.1575 
L 453.165071 -220.1575 
L 452.095159 -220.1575 
L 451.025246 -220.1575 
L 449.955334 -220.1575 
L 448.885422 -220.1575 
L 447.815509 -220.1575 
L 446.745597 -220.1575 
L 445.675684 -220.1575 
L 444.605772 -220.1575 
L 443.53586 -220.1575 
L 442.465947 -220.1575 
L 441.396035 -220.1575 
L 440.326123 -220.1575 
L 439.25621 -220.1575 
L 438.186298 -220.1575 
L 437.116386 -220.1575 
L 436.046473 -220.1575 
L 434.976561 -220.1575 
L 433.906649 -220.1575 
L 432.836736 -220.1575 
L 431.766824 -220.1575 
L 430.696912 -220.1575 
L 429.626999 -220.1575 
L 428.557087 -220.1575 
L 427.487174 -220.1575 
L 426.417262 -220.1575 
L 425.34735 -220.1575 
L 424.277437 -220.1575 
L 423.207525 -220.1575 
L 422.137613 -220.1575 
L 421.0677 -220.1575 
L 419.997788 -220.1575 
L 418.927876 -220.1575 
L 417.857963 -220.1575 
L 416.788051 -220.1575 
L 415.718139 -220.1575 
L 414.648226 -220.1575 
L 413.578314 -220.1575 
L 412.508402 -220.1575 
L 411.438489 -220.1575 
L 410.368577 -220.1575 
L 409.298664 -220.1575 
L 408.228752 -220.1575 
L 407.15884 -220.1575 
L 406.088927 -220.1575 
L 405.019015 -220.1575 
L 403.949103 -220.1575 
L 402.87919 -220.1575 
L 401.809278 -220.1575 
L 400.739366 -220.1575 
L 399.669453 -220.1575 
L 398.599541 -220.1575 
L 397.529629 -220.1575 
L 396.459716 -220.1575 
L 395.389804 -220.1575 
L 394.319891 -220.1575 
L 393.249979 -220.1575 
L 392.180067 -220.1575 
L 391.110154 -220.1575 
L 390.040242 -220.1575 
L 388.97033 -220.1575 
L 387.900417 -220.1575 
L 386.830505 -220.1575 
L 385.760593 -220.1575 
L 384.69068 -220.1575 
L 383.620768 -220.1575 
L 382.550856 -220.1575 
L 381.480943 -220.1575 
L 380.411031 -220.1575 
L 379.341119 -220.1575 
L 378.271206 -220.1575 
L 377.201294 -220.1575 
L 376.131381 -220.1575 
L 375.061469 -220.1575 
L 373.991557 -220.1575 
L 372.921644 -220.1575 
L 371.851732 -220.1575 
L 370.78182 -220.1575 
L 369.711907 -220.1575 
L 368.641995 -220.1575 
L 367.572083 -220.1575 
L 366.50217 -220.1575 
L 365.432258 -220.1575 
L 364.362346 -220.1575 
L 363.292433 -220.1575 
L 362.222521 -220.1575 
L 361.152609 -220.1575 
L 360.082696 -220.1575 
L 359.012784 -220.1575 
L 357.942871 -220.1575 
L 356.872959 -220.1575 
L 355.803047 -220.1575 
L 354.733134 -220.1575 
L 353.663222 -220.1575 
L 352.59331 -220.1575 
L 351.523397 -220.1575 
L 350.453485 -220.1575 
L 349.383573 -220.1575 
L 348.31366 -220.1575 
L 347.243748 -220.1575 
L 346.173836 -220.1575 
L 345.103923 -220.1575 
L 344.034011 -220.1575 
L 342.964098 -220.1575 
L 341.894186 -220.1575 
L 340.824274 -220.1575 
L 339.754361 -220.1575 
L 338.684449 -220.1575 
L 337.614537 -220.1575 
L 336.544624 -220.1575 
L 335.474712 -220.1575 
L 334.4048 -220.1575 
L 333.334887 -220.1575 
L 332.264975 -220.1575 
L 331.195063 -220.1575 
L 330.12515 -220.1575 
L 329.055238 -220.1575 
L 327.985326 -220.1575 
L 326.915413 -220.1575 
L 325.845501 -220.1575 
L 324.775588 -220.1575 
L 323.705676 -220.1575 
L 322.635764 -220.1575 
L 321.565851 -220.1575 
L 320.495939 -220.1575 
L 319.426027 -220.1575 
L 318.356114 -220.1575 
L 317.286202 -220.1575 
L 316.21629 -220.1575 
L 315.146377 -220.1575 
L 314.076465 -220.1575 
L 313.006553 -220.1575 
L 311.93664 -220.1575 
L 310.866728 -220.1575 
L 309.796816 -220.1575 
L 308.726903 -220.1575 
L 307.656991 -220.1575 
L 306.587078 -220.1575 
L 305.517166 -220.1575 
L 304.447254 -220.1575 
L 303.377341 -220.1575 
L 302.307429 -220.1575 
L 301.237517 -220.1575 
L 300.167604 -220.1575 
L 299.097692 -220.1575 
L 298.02778 -220.1575 
L 296.957867 -220.1575 
L 295.887955 -220.1575 
L 294.818043 -220.1575 
L 293.74813 -220.1575 
L 292.678218 -220.1575 
L 291.608306 -220.1575 
L 290.538393 -220.1575 
L 289.468481 -220.1575 
L 288.398568 -220.1575 
L 287.328656 -220.1575 
L 286.258744 -220.1575 
L 285.188831 -220.1575 
L 284.118919 -220.1575 
L 283.049007 -220.1575 
L 281.979094 -220.1575 
L 280.909182 -220.1575 
L 279.83927 -220.1575 
L 278.769357 -220.1575 
L 277.699445 -220.1575 
L 276.629533 -220.1575 
L 275.55962 -220.1575 
L 274.489708 -220.1575 
L 273.419795 -220.1575 
L 272.349883 -220.1575 
L 271.279971 -220.1575 
L 270.210058 -220.1575 
L 269.140146 -220.1575 
L 268.070234 -220.1575 
L 267.000321 -220.1575 
L 265.930409 -220.1575 
L 264.860497 -220.1575 
L 263.790584 -220.1575 
L 262.720672 -220.1575 
L 261.65076 -220.1575 
z
" style="stroke: #b469a3; stroke-opacity: 0.18"/>
    </defs>
    <g clip-path="url(#pa9c5977de8)">
     <use xlink:href="#m442e45856b" x="0" y="403.2" style="fill: #b469a3; fill-opacity: 0.18; stroke: #b469a3; stroke-opacity: 0.18"/>
    </g>
   </g>
   <g id="line2d_1">
    <path d="M 57.2975 183.0425 
L 698.175 183.0425 
" clip-path="url(#pa9c5977de8)" style="fill: none; stroke-dasharray: 5.55,2.4; stroke-dashoffset: 0; stroke: #000000; stroke-width: 1.5"/>
   </g>
   <g id="line2d_2">
    <path d="M 377.73625 350.965 
L 377.73625 15.12 
" clip-path="url(#pa9c5977de8)" style="fill: none; stroke-dasharray: 5.55,2.4; stroke-dashoffset: 0; stroke: #000000; stroke-width: 1.5"/>
   </g>
   <g id="LineCollection_1">
    <path d="M 260.913697 335.699318 
L 260.913697 183.0425 
" clip-path="url(#pa9c5977de8)" style="fill: none; stroke-dasharray: 3.7,1.6; stroke-dashoffset: 0; stroke: #b469a3"/>
    <path d="M 494.558803 335.699318 
L 494.558803 183.0425 
" clip-path="url(#pa9c5977de8)" style="fill: none; stroke-dasharray: 3.7,1.6; stroke-dashoffset: 0; stroke: #b469a3"/>
   </g>
   <g id="matplotlib.axis_1">
    <g id="xtick_1">
     <g id="line2d_3">
      <defs>
       <path id="m8bad23f0ee" d="M 0 0 
L 0 5 
" style="stroke: #000000; stroke-width: 0.8"/>
      </defs>
      <g>
       <use xlink:href="#m8bad23f0ee" x="57.2975" y="350.965" style="stroke: #000000; stroke-width: 0.8"/>
      </g>
     </g>
     <g id="text_1">
      <text style="font-size: 12px; font-family: 'Roboto'; text-anchor: middle" x="57.2975" y="368.465" transform="rotate(-0 57.2975 368.465)">80</text>
     </g>
    </g>
    <g id="xtick_2">
     <g id="line2d_4">
      <g>
       <use xlink:href="#m8bad23f0ee" x="137.407187" y="350.965" style="stroke: #000000; stroke-width: 0.8"/>
      </g>
     </g>
     <g id="text_2">
      <text style="font-size: 12px; font-family: 'Roboto'; text-anchor: middle" x="137.407187" y="368.465" transform="rotate(-0 137.407187 368.465)">60</text>
     </g>
    </g>
    <g id="xtick_3">
     <g id="line2d_5">
      <g>
       <use xlink:href="#m8bad23f0ee" x="217.516875" y="350.965" style="stroke: #000000; stroke-width: 0.8"/>
      </g>
     </g>
     <g id="text_3">
      <text style="font-size: 12px; font-family: 'Roboto'; text-anchor: middle" x="217.516875" y="368.465" transform="rotate(-0 217.516875 368.465)">40</text>
     </g>
    </g>
    <g id="xtick_4">
     <g id="line2d_6">
      <g>
       <use xlink:href="#m8bad23f0ee" x="297.626563" y="350.965" style="stroke: #000000; stroke-width: 0.8"/>
      </g>
     </g>
     <g id="text_4">
      <text style="font-size: 12px; font-family: 'Roboto'; text-anchor: middle" x="297.626563" y="368.465" transform="rotate(-0 297.626563 368.465)">20</text>
     </g>
    </g>
    <g id="xtick_5">
     <g id="line2d_7">
      <g>
       <use xlink:href="#m8bad23f0ee" x="377.73625" y="350.965" style="stroke: #000000; stroke-width: 0.8"/>
      </g>
     </g>
     <g id="text_5">
      <text style="font-size: 12px; font-family: 'Roboto'; text-anchor: middle" x="377.73625" y="368.465" transform="rotate(-0 377.73625 368.465)">0</text>
     </g>
    </g>
    <g id="xtick_6">
     <g id="line2d_8">
      <g>
       <use xlink:href="#m8bad23f0ee" x="457.845938" y="350.965" style="stroke: #000000; stroke-width: 0.8"/>
      </g>
     </g>
     <g id="text_6">
      <text style="font-size: 12px; font-family: 'Roboto'; text-anchor: middle" x="457.845938" y="368.465" transform="rotate(-0 457.845938 368.465)">20</text>
     </g>
    </g>
    <g id="xtick_7">
     <g id="line2d_9">
      <g>
       <use xlink:href="#m8bad23f0ee" x="537.955625" y="350.965" style="stroke: #000000; stroke-width: 0.8"/>
      </g>
     </g>
     <g id="text_7">
      <text style="font-size: 12px; font-family: 'Roboto'; text-anchor: middle" x="537.955625" y="368.465" transform="rotate(-0 537.955625 368.465)">40</text>
     </g>
    </g>
    <g id="xtick_8">
     <g id="line2d_10">
      <g>
       <use xlink:href="#m8bad23f0ee" x="618.065313" y="350.965" style="stroke: #000000; stroke-width: 0.8"/>
      </g>
     </g>
     <g id="text_8">
      <text style="font-size: 12px; font-family: 'Roboto'; text-anchor: middle" x="618.065313" y="368.465" transform="rotate(-0 618.065313 368.465)">60</text>
     </g>
    </g>
    <g id="xtick_9">
     <g id="line2d_11">
      <g>
       <use xlink:href="#m8bad23f0ee" x="698.175" y="350.965" style="stroke: #000000; stroke-width: 0.8"/>
      </g>
     </g>
     <g id="text_9">
      <text style="font-size: 12px; font-family: 'Roboto'; text-anchor: middle" x="698.175" y="368.465" transform="rotate(-0 698.175 368.465)">80</text>
     </g>
    </g>
    <g id="text_10">
     <text style="font-size: 14px; font-family: 'Roboto'; text-anchor: middle" x="377.73625" y="386.133125" transform="rotate(-0 377.73625 386.133125)">spatial disparity (°)</text>
    </g>
   </g>
   <g id="matplotlib.axis_2">
    <g id="ytick_1">
     <g id="line2d_12">
      <defs>
       <path id="m27a7bd8b8c" d="M 0 0 
L -5 0 
" style="stroke: #000000; stroke-width: 0.8"/>
      </defs>
      <g>
       <use xlink:href="#m27a7bd8b8c" x="57.2975" y="335.699318" style="stroke: #000000; stroke-width: 0.8"/>
      </g>
     </g>
     <g id="text_11">
      <text style="font-size: 12px; font-family: 'Roboto'; text-anchor: end" x="48.7975" y="340.199318" transform="rotate(-0 48.7975 340.199318)">0.0</text>
     </g>
    </g>
    <g id="ytick_2">
     <g id="line2d_13">
      <g>
       <use xlink:href="#m27a7bd8b8c" x="57.2975" y="183.0425" style="stroke: #000000; stroke-width: 0.8"/>
      </g>
     </g>
     <g id="text_12">
      <text style="font-size: 12px; font-family: 'Roboto'; text-anchor: end" x="48.7975" y="187.5425" transform="rotate(-0 48.7975 187.5425)">0.5</text>
     </g>
    </g>
    <g id="ytick_3">
     <g id="line2d_14">
      <g>
       <use xlink:href="#m27a7bd8b8c" x="57.2975" y="30.385682" style="stroke: #000000; stroke-width: 0.8"/>
      </g>
     </g>
     <g id="text_13">
      <text style="font-size: 12px; font-family: 'Roboto'; text-anchor: end" x="48.7975" y="34.885682" transform="rotate(-0 48.7975 34.885682)">1.0</text>
     </g>
    </g>
    <g id="text_14">
     <text style="font-size: 14px; font-family: 'Roboto'; text-anchor: middle" x="25.174375" y="183.0425" transform="rotate(-90 25.174375 183.0425)">fusion probability</text>
    </g>
   </g>
   <g id="line2d_15">
    <path d="M 57.2975 332.852067 
L 147.170138 332.745622 
L 163.218823 332.522317 
L 172.848034 332.202922 
L 180.337421 331.753634 
L 186.756895 331.129476 
L 192.106457 330.348233 
L 196.386106 329.477996 
L 199.595843 328.634982 
L 202.80558 327.585353 
L 206.015317 326.280696 
L 209.225054 324.66248 
L 211.364879 323.37537 
L 213.504704 321.894115 
L 215.644528 320.19215 
L 217.784353 318.24017 
L 219.924178 316.006153 
L 222.064003 313.455491 
L 224.203827 310.551294 
L 226.343652 307.254881 
L 228.483477 303.526538 
L 230.623301 299.326555 
L 232.763126 294.616601 
L 234.902951 289.361447 
L 237.042775 283.531024 
L 239.1826 277.102775 
L 241.322425 270.064196 
L 243.46225 262.415393 
L 246.671987 249.835623 
L 249.881724 236.044238 
L 253.091461 221.256009 
L 258.441023 195.239273 
L 264.860497 163.935689 
L 268.070234 149.14463 
L 271.279971 135.349562 
L 274.489708 122.765553 
L 276.629533 115.113764 
L 278.769357 108.072163 
L 280.909182 101.640927 
L 283.049007 95.807607 
L 285.188831 90.54969 
L 287.328656 85.837139 
L 289.468481 81.634745 
L 291.608306 77.904188 
L 293.74813 74.605762 
L 295.887955 71.699749 
L 298.02778 69.147465 
L 300.167604 66.912008 
L 302.307429 64.95876 
L 304.447254 63.255685 
L 306.587078 61.773467 
L 308.726903 60.485529 
L 311.93664 58.866298 
L 315.146377 57.560871 
L 318.356114 56.510688 
L 321.565851 55.667315 
L 325.845501 54.796883 
L 330.12515 54.149701 
L 335.474712 53.570105 
L 341.894186 53.108723 
L 350.453485 52.745042 
L 362.222521 52.506187 
L 378.271206 52.420208 
L 395.389804 52.5348 
L 407.15884 52.816137 
L 415.718139 53.239971 
L 422.137613 53.776323 
L 427.487174 54.449285 
L 431.766824 55.200013 
L 436.046473 56.208713 
L 439.25621 57.185036 
L 442.465947 58.399405 
L 445.675684 59.906842 
L 447.815509 61.106769 
L 449.955334 62.488694 
L 452.095159 64.077848 
L 454.234983 65.902173 
L 456.374808 67.992355 
L 458.514633 70.381746 
L 460.654457 73.106156 
L 462.794282 76.203454 
L 464.934107 79.712954 
L 467.073932 83.674517 
L 469.213756 88.127349 
L 471.353581 93.108453 
L 473.493406 98.650729 
L 475.63323 104.780761 
L 477.773055 111.516354 
L 479.91288 118.863957 
L 482.052705 126.816168 
L 485.262442 139.822095 
L 488.472179 153.977529 
L 492.751828 174.204381 
L 504.520864 231.212391 
L 507.730601 245.364394 
L 510.940338 258.366233 
L 513.080163 266.315505 
L 515.219987 273.660095 
L 517.359812 280.392675 
L 519.499637 286.519759 
L 521.639462 292.059201 
L 523.779286 297.037621 
L 525.919111 301.487948 
L 528.058936 305.447197 
L 530.19876 308.954583 
L 532.338585 312.049968 
L 534.47841 314.77266 
L 536.618235 317.160521 
L 538.758059 319.24935 
L 540.897884 321.072488 
L 543.037709 322.660607 
L 545.177533 324.041638 
L 548.38727 325.779341 
L 551.597008 327.181472 
L 554.806745 328.310261 
L 558.016482 329.217332 
L 562.296131 330.154141 
L 566.57578 330.851257 
L 571.925342 331.476335 
L 578.344816 331.975223 
L 585.834203 332.334059 
L 596.533326 332.608102 
L 612.582012 332.773364 
L 645.749295 332.844625 
L 698.175 332.852067 
L 698.175 332.852067 
" clip-path="url(#pa9c5977de8)" style="fill: none; stroke: #b469a3; stroke-width: 3; stroke-linecap: round"/>
   </g>
   <g id="patch_3">
    <path d="M 57.2975 350.965 
L 57.2975 15.12 
" style="fill: none; stroke: #000000; stroke-width: 0.8; stroke-linejoin: miter; stroke-linecap: square"/>
   </g>
   <g id="patch_4">
    <path d="M 57.2975 350.965 
L 698.175 350.965 
" style="fill: none; stroke: #000000; stroke-width: 0.8; stroke-linejoin: miter; stroke-linecap: square"/>
   </g>
   <g id="LineCollection_2">
    <path d="M 57.2975 338.358408 
L 57.2975 333.040228 
" clip-path="url(#pa9c5977de8)" style="fill: none; stroke: #939598; stroke-width: 0.5"/>
    <path d="M 77.324922 336.129948 
L 77.324922 332.477249 
" clip-path="url(#pa9c5977de8)" style="fill: none; stroke: #939598; stroke-width: 0.5"/>
    <path d="M 97.352344 335.499987 
L 97.352344 330.664701 
" clip-path="url(#pa9c5977de8)" style="fill: none; stroke: #939598; stroke-width: 0.5"/>
    <path d="M 117.379766 335.200596 
L 117.379766 327.910956 
" clip-path="url(#pa9c5977de8)" style="fill: none; stroke: #939598; stroke-width: 0.5"/>
    <path d="M 137.407187 337.036665 
L 137.407187 334.361971 
" clip-path="url(#pa9c5977de8)" style="fill: none; stroke: #939598; stroke-width: 0.5"/>
    <path d="M 157.434609 335.122009 
L 157.434609 330.432052 
" clip-path="url(#pa9c5977de8)" style="fill: none; stroke: #939598; stroke-width: 0.5"/>
    <path d="M 177.462031 335.453904 
L 177.462031 328.878902 
" clip-path="url(#pa9c5977de8)" style="fill: none; stroke: #939598; stroke-width: 0.5"/>
    <path d="M 197.489453 327.588904 
L 197.489453 322.699475 
" clip-path="url(#pa9c5977de8)" style="fill: none; stroke: #939598; stroke-width: 0.5"/>
    <path d="M 217.516875 320.640081 
L 217.516875 313.771989 
" clip-path="url(#pa9c5977de8)" style="fill: none; stroke: #939598; stroke-width: 0.5"/>
    <path d="M 237.544297 285.653654 
L 237.544297 269.987498 
" clip-path="url(#pa9c5977de8)" style="fill: none; stroke: #939598; stroke-width: 0.5"/>
    <path d="M 257.571719 211.448471 
L 257.571719 199.474017 
" clip-path="url(#pa9c5977de8)" style="fill: none; stroke: #939598; stroke-width: 0.5"/>
    <path d="M 277.599141 111.797068 
L 277.599141 105.556575 
" clip-path="url(#pa9c5977de8)" style="fill: none; stroke: #939598; stroke-width: 0.5"/>
    <path d="M 297.626563 67.357709 
L 297.626563 63.897488 
" clip-path="url(#pa9c5977de8)" style="fill: none; stroke: #939598; stroke-width: 0.5"/>
    <path d="M 317.653984 58.927506 
L 317.653984 57.062009 
" clip-path="url(#pa9c5977de8)" style="fill: none; stroke: #939598; stroke-width: 0.5"/>
    <path d="M 337.681406 54.738079 
L 337.681406 53.923909 
" clip-path="url(#pa9c5977de8)" style="fill: none; stroke: #939598; stroke-width: 0.5"/>
    <path d="M 357.708828 54.330994 
L 357.708828 53.720367 
" clip-path="url(#pa9c5977de8)" style="fill: none; stroke: #939598; stroke-width: 0.5"/>
    <path d="M 377.73625 53.720367 
L 377.73625 53.720367 
" clip-path="url(#pa9c5977de8)" style="fill: none; stroke: #939598; stroke-width: 0.5"/>
    <path d="M 397.763672 54.330994 
L 397.763672 53.720367 
" clip-path="url(#pa9c5977de8)" style="fill: none; stroke: #939598; stroke-width: 0.5"/>
    <path d="M 417.791094 54.738079 
L 417.791094 53.923909 
" clip-path="url(#pa9c5977de8)" style="fill: none; stroke: #939598; stroke-width: 0.5"/>
    <path d="M 437.818516 58.927506 
L 437.818516 57.062009 
" clip-path="url(#pa9c5977de8)" style="fill: none; stroke: #939598; stroke-width: 0.5"/>
    <path d="M 457.845938 67.357709 
L 457.845938 63.897488 
" clip-path="url(#pa9c5977de8)" style="fill: none; stroke: #939598; stroke-width: 0.5"/>
    <path d="M 477.873359 111.797068 
L 477.873359 105.556575 
" clip-path="url(#pa9c5977de8)" style="fill: none; stroke: #939598; stroke-width: 0.5"/>
    <path d="M 497.900781 211.448471 
L 497.900781 199.474017 
" clip-path="url(#pa9c5977de8)" style="fill: none; stroke: #939598; stroke-width: 0.5"/>
    <path d="M 517.928203 285.653654 
L 517.928203 269.987498 
" clip-path="url(#pa9c5977de8)" style="fill: none; stroke: #939598; stroke-width: 0.5"/>
    <path d="M 537.955625 320.640081 
L 537.955625 313.771989 
" clip-path="url(#pa9c5977de8)" style="fill: none; stroke: #939598; stroke-width: 0.5"/>
    <path d="M 557.983047 327.588904 
L 557.983047 322.699475 
" clip-path="url(#pa9c5977de8)" style="fill: none; stroke: #939598; stroke-width: 0.5"/>
    <path d="M 578.010469 335.453904 
L 578.010469 328.878902 
" clip-path="url(#pa9c5977de8)" style="fill: none; stroke: #939598; stroke-width: 0.5"/>
    <path d="M 598.037891 335.122009 
L 598.037891 330.432052 
" clip-path="url(#pa9c5977de8)" style="fill: none; stroke: #939598; stroke-width: 0.5"/>
    <path d="M 618.065313 337.036665 
L 618.065313 334.361971 
" clip-path="url(#pa9c5977de8)" style="fill: none; stroke: #939598; stroke-width: 0.5"/>
    <path d="M 638.092734 335.200596 
L 638.092734 327.910956 
" clip-path="url(#pa9c5977de8)" style="fill: none; stroke: #939598; stroke-width: 0.5"/>
    <path d="M 658.120156 335.499987 
L 658.120156 330.664701 
" clip-path="url(#pa9c5977de8)" style="fill: none; stroke: #939598; stroke-width: 0.5"/>
    <path d="M 678.147578 336.129948 
L 678.147578 332.477249 
" clip-path="url(#pa9c5977de8)" style="fill: none; stroke: #939598; stroke-width: 0.5"/>
    <path d="M 698.175 338.358408 
L 698.175 333.040228 
" clip-path="url(#pa9c5977de8)" style="fill: none; stroke: #939598; stroke-width: 0.5"/>
   </g>
   <g id="line2d_16">
    <defs>
     <path id="mad4ba9d09e" d="M 2 0 
L -2 -0 
" style="stroke: #939598; stroke-width: 0.3"/>
    </defs>
    <g clip-path="url(#pa9c5977de8)">
     <use xlink:href="#mad4ba9d09e" x="57.2975" y="338.358408" style="fill: #939598; stroke: #939598; stroke-width: 0.3"/>
     <use xlink:href="#mad4ba9d09e" x="77.324922" y="336.129948" style="fill: #939598; stroke: #939598; stroke-width: 0.3"/>
     <use xlink:href="#mad4ba9d09e" x="97.352344" y="335.499987" style="fill: #939598; stroke: #939598; stroke-width: 0.3"/>
     <use xlink:href="#mad4ba9d09e" x="117.379766" y="335.200596" style="fill: #939598; stroke: #939598; stroke-width: 0.3"/>
     <use xlink:href="#mad4ba9d09e" x="137.407187" y="337.036665" style="fill: #939598; stroke: #939598; stroke-width: 0.3"/>
     <use xlink:href="#mad4ba9d09e" x="157.434609" y="335.122009" style="fill: #939598; stroke: #939598; stroke-width: 0.3"/>
     <use xlink:href="#mad4ba9d09e" x="177.462031" y="335.453904" style="fill: #939598; stroke: #939598; stroke-width: 0.3"/>
     <use xlink:href="#mad4ba9d09e" x="197.489453" y="327.588904" style="fill: #939598; stroke: #939598; stroke-width: 0.3"/>
     <use xlink:href="#mad4ba9d09e" x="217.516875" y="320.640081" style="fill: #939598; stroke: #939598; stroke-width: 0.3"/>
     <use xlink:href="#mad4ba9d09e" x="237.544297" y="285.653654" style="fill: #939598; stroke: #939598; stroke-width: 0.3"/>
     <use xlink:href="#mad4ba9d09e" x="257.571719" y="211.448471" style="fill: #939598; stroke: #939598; stroke-width: 0.3"/>
     <use xlink:href="#mad4ba9d09e" x="277.599141" y="111.797068" style="fill: #939598; stroke: #939598; stroke-width: 0.3"/>
     <use xlink:href="#mad4ba9d09e" x="297.626563" y="67.357709" style="fill: #939598; stroke: #939598; stroke-width: 0.3"/>
     <use xlink:href="#mad4ba9d09e" x="317.653984" y="58.927506" style="fill: #939598; stroke: #939598; stroke-width: 0.3"/>
     <use xlink:href="#mad4ba9d09e" x="337.681406" y="54.738079" style="fill: #939598; stroke: #939598; stroke-width: 0.3"/>
     <use xlink:href="#mad4ba9d09e" x="357.708828" y="54.330994" style="fill: #939598; stroke: #939598; stroke-width: 0.3"/>
     <use xlink:href="#mad4ba9d09e" x="377.73625" y="53.720367" style="fill: #939598; stroke: #939598; stroke-width: 0.3"/>
     <use xlink:href="#mad4ba9d09e" x="397.763672" y="54.330994" style="fill: #939598; stroke: #939598; stroke-width: 0.3"/>
     <use xlink:href="#mad4ba9d09e" x="417.791094" y="54.738079" style="fill: #939598; stroke: #939598; stroke-width: 0.3"/>
     <use xlink:href="#mad4ba9d09e" x="437.818516" y="58.927506" style="fill: #939598; stroke: #939598; stroke-width: 0.3"/>
     <use xlink:href="#mad4ba9d09e" x="457.845938" y="67.357709" style="fill: #939598; stroke: #939598; stroke-width: 0.3"/>
     <use xlink:href="#mad4ba9d09e" x="477.873359" y="111.797068" style="fill: #939598; stroke: #939598; stroke-width: 0.3"/>
     <use xlink:href="#mad4ba9d09e" x="497.900781" y="211.448471" style="fill: #939598; stroke: #939598; stroke-width: 0.3"/>
     <use xlink:href="#mad4ba9d09e" x="517.928203" y="285.653654" style="fill: #939598; stroke: #939598; stroke-width: 0.3"/>
     <use xlink:href="#mad4ba9d09e" x="537.955625" y="320.640081" style="fill: #939598; stroke: #939598; stroke-width: 0.3"/>
     <use xlink:href="#mad4ba9d09e" x="557.983047" y="327.588904" style="fill: #939598; stroke: #939598; stroke-width: 0.3"/>
     <use xlink:href="#mad4ba9d09e" x="578.010469" y="335.453904" style="fill: #939598; stroke: #939598; stroke-width: 0.3"/>
     <use xlink:href="#mad4ba9d09e" x="598.037891" y="335.122009" style="fill: #939598; stroke: #939598; stroke-width: 0.3"/>
     <use xlink:href="#mad4ba9d09e" x="618.065313" y="337.036665" style="fill: #939598; stroke: #939598; stroke-width: 0.3"/>
     <use xlink:href="#mad4ba9d09e" x="638.092734" y="335.200596" style="fill: #939598; stroke: #939598; stroke-width: 0.3"/>
     <use xlink:href="#mad4ba9d09e" x="658.120156" y="335.499987" style="fill: #939598; stroke: #939598; stroke-width: 0.3"/>
     <use xlink:href="#mad4ba9d09e" x="678.147578" y="336.129948" style="fill: #939598; stroke: #939598; stroke-width: 0.3"/>
     <use xlink:href="#mad4ba9d09e" x="698.175" y="338.358408" style="fill: #939598; stroke: #939598; stroke-width: 0.3"/>
    </g>
   </g>
   <g id="line2d_17">
    <g clip-path="url(#pa9c5977de8)">
     <use xlink:href="#mad4ba9d09e" x="57.2975" y="333.040228" style="fill: #939598; stroke: #939598; stroke-width: 0.3"/>
     <use xlink:href="#mad4ba9d09e" x="77.324922" y="332.477249" style="fill: #939598; stroke: #939598; stroke-width: 0.3"/>
     <use xlink:href="#mad4ba9d09e" x="97.352344" y="330.664701" style="fill: #939598; stroke: #939598; stroke-width: 0.3"/>
     <use xlink:href="#mad4ba9d09e" x="117.379766" y="327.910956" style="fill: #939598; stroke: #939598; stroke-width: 0.3"/>
     <use xlink:href="#mad4ba9d09e" x="137.407187" y="334.361971" style="fill: #939598; stroke: #939598; stroke-width: 0.3"/>
     <use xlink:href="#mad4ba9d09e" x="157.434609" y="330.432052" style="fill: #939598; stroke: #939598; stroke-width: 0.3"/>
     <use xlink:href="#mad4ba9d09e" x="177.462031" y="328.878902" style="fill: #939598; stroke: #939598; stroke-width: 0.3"/>
     <use xlink:href="#mad4ba9d09e" x="197.489453" y="322.699475" style="fill: #939598; stroke: #939598; stroke-width: 0.3"/>
     <use xlink:href="#mad4ba9d09e" x="217.516875" y="313.771989" style="fill: #939598; stroke: #939598; stroke-width: 0.3"/>
     <use xlink:href="#mad4ba9d09e" x="237.544297" y="269.987498" style="fill: #939598; stroke: #939598; stroke-width: 0.3"/>
     <use xlink:href="#mad4ba9d09e" x="257.571719" y="199.474017" style="fill: #939598; stroke: #939598; stroke-width: 0.3"/>
     <use xlink:href="#mad4ba9d09e" x="277.599141" y="105.556575" style="fill: #939598; stroke: #939598; stroke-width: 0.3"/>
     <use xlink:href="#mad4ba9d09e" x="297.626563" y="63.897488" style="fill: #939598; stroke: #939598; stroke-width: 0.3"/>
     <use xlink:href="#mad4ba9d09e" x="317.653984" y="57.062009" style="fill: #939598; stroke: #939598; stroke-width: 0.3"/>
     <use xlink:href="#mad4ba9d09e" x="337.681406" y="53.923909" style="fill: #939598; stroke: #939598; stroke-width: 0.3"/>
     <use xlink:href="#mad4ba9d09e" x="357.708828" y="53.720367" style="fill: #939598; stroke: #939598; stroke-width: 0.3"/>
     <use xlink:href="#mad4ba9d09e" x="377.73625" y="53.720367" style="fill: #939598; stroke: #939598; stroke-width: 0.3"/>
     <use xlink:href="#mad4ba9d09e" x="397.763672" y="53.720367" style="fill: #939598; stroke: #939598; stroke-width: 0.3"/>
     <use xlink:href="#mad4ba9d09e" x="417.791094" y="53.923909" style="fill: #939598; stroke: #939598; stroke-width: 0.3"/>
     <use xlink:href="#mad4ba9d09e" x="437.818516" y="57.062009" style="fill: #939598; stroke: #939598; stroke-width: 0.3"/>
     <use xlink:href="#mad4ba9d09e" x="457.845938" y="63.897488" style="fill: #939598; stroke: #939598; stroke-width: 0.3"/>
     <use xlink:href="#mad4ba9d09e" x="477.873359" y="105.556575" style="fill: #939598; stroke: #939598; stroke-width: 0.3"/>
     <use xlink:href="#mad4ba9d09e" x="497.900781" y="199.474017" style="fill: #939598; stroke: #939598; stroke-width: 0.3"/>
     <use xlink:href="#mad4ba9d09e" x="517.928203" y="269.987498" style="fill: #939598; stroke: #939598; stroke-width: 0.3"/>
     <use xlink:href="#mad4ba9d09e" x="537.955625" y="313.771989" style="fill: #939598; stroke: #939598; stroke-width: 0.3"/>
     <use xlink:href="#mad4ba9d09e" x="557.983047" y="322.699475" style="fill: #939598; stroke: #939598; stroke-width: 0.3"/>
     <use xlink:href="#mad4ba9d09e" x="578.010469" y="328.878902" style="fill: #939598; stroke: #939598; stroke-width: 0.3"/>
     <use xlink:href="#mad4ba9d09e" x="598.037891" y="330.432052" style="fill: #939598; stroke: #939598; stroke-width: 0.3"/>
     <use xlink:href="#mad4ba9d09e" x="618.065313" y="334.361971" style="fill: #939598; stroke: #939598; stroke-width: 0.3"/>
     <use xlink:href="#mad4ba9d09e" x="638.092734" y="327.910956" style="fill: #939598; stroke: #939598; stroke-width: 0.3"/>
     <use xlink:href="#mad4ba9d09e" x="658.120156" y="330.664701" style="fill: #939598; stroke: #939598; stroke-width: 0.3"/>
     <use xlink:href="#mad4ba9d09e" x="678.147578" y="332.477249" style="fill: #939598; stroke: #939598; stroke-width: 0.3"/>
     <use xlink:href="#mad4ba9d09e" x="698.175" y="333.040228" style="fill: #939598; stroke: #939598; stroke-width: 0.3"/>
    </g>
   </g>
   <g id="line2d_18">
    <defs>
     <path id="m0185bf18b6" d="M 0 2 
C 0.530406 2 1.03916 1.789267 1.414214 1.414214 
C 1.789267 1.03916 2 0.530406 2 0 
C 2 -0.530406 1.789267 -1.03916 1.414214 -1.414214 
C 1.03916 -1.789267 0.530406 -2 0 -2 
C -0.530406 -2 -1.03916 -1.789267 -1.414214 -1.414214 
C -1.789267 -1.03916 -2 -0.530406 -2 0 
C -2 0.530406 -1.789267 1.03916 -1.414214 1.414214 
C -1.03916 1.789267 -0.530406 2 0 2 
z
" style="stroke: #000000; stroke-width: 0.3"/>
    </defs>
    <g clip-path="url(#pa9c5977de8)">
     <use xlink:href="#m0185bf18b6" x="57.2975" y="335.699318" style="fill: #939598; stroke: #000000; stroke-width: 0.3"/>
     <use xlink:href="#m0185bf18b6" x="77.324922" y="334.303599" style="fill: #939598; stroke: #000000; stroke-width: 0.3"/>
     <use xlink:href="#m0185bf18b6" x="97.352344" y="333.082344" style="fill: #939598; stroke: #000000; stroke-width: 0.3"/>
     <use xlink:href="#m0185bf18b6" x="117.379766" y="331.555776" style="fill: #939598; stroke: #000000; stroke-width: 0.3"/>
     <use xlink:href="#m0185bf18b6" x="137.407187" y="335.699318" style="fill: #939598; stroke: #000000; stroke-width: 0.3"/>
     <use xlink:href="#m0185bf18b6" x="157.434609" y="332.777031" style="fill: #939598; stroke: #000000; stroke-width: 0.3"/>
     <use xlink:href="#m0185bf18b6" x="177.462031" y="332.166403" style="fill: #939598; stroke: #000000; stroke-width: 0.3"/>
     <use xlink:href="#m0185bf18b6" x="197.489453" y="325.14419" style="fill: #939598; stroke: #000000; stroke-width: 0.3"/>
     <use xlink:href="#m0185bf18b6" x="217.516875" y="317.206035" style="fill: #939598; stroke: #000000; stroke-width: 0.3"/>
     <use xlink:href="#m0185bf18b6" x="237.544297" y="277.820576" style="fill: #939598; stroke: #000000; stroke-width: 0.3"/>
     <use xlink:href="#m0185bf18b6" x="257.571719" y="205.461244" style="fill: #939598; stroke: #000000; stroke-width: 0.3"/>
     <use xlink:href="#m0185bf18b6" x="277.599141" y="108.676821" style="fill: #939598; stroke: #000000; stroke-width: 0.3"/>
     <use xlink:href="#m0185bf18b6" x="297.626563" y="65.627599" style="fill: #939598; stroke: #000000; stroke-width: 0.3"/>
     <use xlink:href="#m0185bf18b6" x="317.653984" y="57.994758" style="fill: #939598; stroke: #000000; stroke-width: 0.3"/>
     <use xlink:href="#m0185bf18b6" x="337.681406" y="54.330994" style="fill: #939598; stroke: #000000; stroke-width: 0.3"/>
     <use xlink:href="#m0185bf18b6" x="357.708828" y="54.025681" style="fill: #939598; stroke: #000000; stroke-width: 0.3"/>
     <use xlink:href="#m0185bf18b6" x="377.73625" y="53.720367" style="fill: #939598; stroke: #000000; stroke-width: 0.3"/>
     <use xlink:href="#m0185bf18b6" x="397.763672" y="54.025681" style="fill: #939598; stroke: #000000; stroke-width: 0.3"/>
     <use xlink:href="#m0185bf18b6" x="417.791094" y="54.330994" style="fill: #939598; stroke: #000000; stroke-width: 0.3"/>
     <use xlink:href="#m0185bf18b6" x="437.818516" y="57.994758" style="fill: #939598; stroke: #000000; stroke-width: 0.3"/>
     <use xlink:href="#m0185bf18b6" x="457.845938" y="65.627599" style="fill: #939598; stroke: #000000; stroke-width: 0.3"/>
     <use xlink:href="#m0185bf18b6" x="477.873359" y="108.676821" style="fill: #939598; stroke: #000000; stroke-width: 0.3"/>
     <use xlink:href="#m0185bf18b6" x="497.900781" y="205.461244" style="fill: #939598; stroke: #000000; stroke-width: 0.3"/>
     <use xlink:href="#m0185bf18b6" x="517.928203" y="277.820576" style="fill: #939598; stroke: #000000; stroke-width: 0.3"/>
     <use xlink:href="#m0185bf18b6" x="537.955625" y="317.206035" style="fill: #939598; stroke: #000000; stroke-width: 0.3"/>
     <use xlink:href="#m0185bf18b6" x="557.983047" y="325.14419" style="fill: #939598; stroke: #000000; stroke-width: 0.3"/>
     <use xlink:href="#m0185bf18b6" x="578.010469" y="332.166403" style="fill: #939598; stroke: #000000; stroke-width: 0.3"/>
     <use xlink:href="#m0185bf18b6" x="598.037891" y="332.777031" style="fill: #939598; stroke: #000000; stroke-width: 0.3"/>
     <use xlink:href="#m0185bf18b6" x="618.065313" y="335.699318" style="fill: #939598; stroke: #000000; stroke-width: 0.3"/>
     <use xlink:href="#m0185bf18b6" x="638.092734" y="331.555776" style="fill: #939598; stroke: #000000; stroke-width: 0.3"/>
     <use xlink:href="#m0185bf18b6" x="658.120156" y="333.082344" style="fill: #939598; stroke: #000000; stroke-width: 0.3"/>
     <use xlink:href="#m0185bf18b6" x="678.147578" y="334.303599" style="fill: #939598; stroke: #000000; stroke-width: 0.3"/>
     <use xlink:href="#m0185bf18b6" x="698.175" y="335.699318" style="fill: #939598; stroke: #000000; stroke-width: 0.3"/>
    </g>
   </g>
  </g>
 </g>
 <defs>
  <clipPath id="pa9c5977de8">
   <rect x="57.2975" y="15.12" width="640.8775" height="335.845"/>
  </clipPath>
 </defs>
</svg>
